<?xml version="1.0" standalone="no"?>
<!DOCTYPE svg PUBLIC "-//W3C//DTD SVG 20010904//EN"
 "http://www.w3.org/TR/2001/REC-SVG-20010904/DTD/svg10.dtd">
<svg version="1.0" xmlns="http://www.w3.org/2000/svg"
 width="311.000000pt" height="311.000000pt" viewBox="0 0 311.000000 311.000000"
 preserveAspectRatio="xMidYMid meet">
<metadata>
Created by potrace 1.14, written by Peter Selinger 2001-2017
</metadata>
<g transform="translate(0.000000,311.000000) scale(0.100000,-0.100000)"
fill="#000000" stroke="none">
<path d="M1115 1878 c-3 -11 -48 -159 -84 -278 -7 -21 -14 -25 -52 -27 -24 0
-50 -2 -56 -2 -8 -1 -13 -17 -13 -45 0 -43 1 -45 33 -48 32 -3 32 -3 9 -16
-51 -29 -104 19 -104 95 0 81 85 128 124 69 5 -7 18 0 38 20 l31 31 -36 31
c-72 64 -160 41 -206 -56 -61 -124 10 -292 123 -292 l36 0 -21 -66 c-19 -56
-19 -66 -7 -74 8 -5 18 -6 21 -2 13 16 200 645 195 658 -7 17 -25 18 -31 2z"/>
<path d="M184 1736 c-3 -10 -36 -209 -49 -301 -4 -22 -8 -48 -11 -57 -5 -15 2
-18 39 -18 l45 0 13 73 c6 39 15 77 18 84 4 7 18 -26 31 -73 l25 -85 39 3 39
3 27 85 c30 94 30 94 48 -35 l7 -50 43 -3 c29 -2 42 1 42 10 0 7 -9 67 -19
133 -11 66 -23 143 -26 170 -8 60 -16 70 -60 71 l-33 1 -33 -109 -33 -109 -12
33 c-7 18 -23 67 -35 108 l-22 75 -40 1 c-21 1 -40 -4 -43 -10z"/>
<path d="M510 1744 c0 -2 23 -52 51 -111 48 -102 51 -112 51 -190 l1 -83 43 0
c24 0 44 5 45 10 0 6 1 45 1 89 1 71 -3 86 -38 162 -58 126 -58 126 -109 126
-25 0 -45 -1 -45 -3z"/>
<path d="M705 1726 c-37 -57 -38 -71 -12 -122 l25 -48 30 59 c16 33 36 76 45
96 l14 35 -44 0 c-34 0 -48 -5 -58 -20z"/>
<path d="M1273 1553 l-1 -193 115 0 114 0 -3 48 -3 47 -60 1 c-80 2 -77 1 -73
27 3 20 8 22 70 22 l67 -1 -1 48 0 48 -69 0 c-67 0 -69 1 -69 25 0 24 2 25 70
25 l70 0 -2 47 -3 48 -111 0 -111 1 0 -193z"/>
<path d="M1528 1746 c0 -1 -2 -88 -3 -193 l-2 -193 44 0 43 0 0 60 c0 33 4 60
9 60 4 0 23 -27 40 -60 32 -60 33 -60 77 -60 24 0 44 3 44 8 0 4 -14 34 -30
67 l-29 60 20 21 c26 27 41 84 34 124 -11 62 -50 98 -110 103 -29 2 -30 1 -33
-45 -3 -42 -1 -48 17 -48 11 0 25 -9 31 -21 15 -27 -3 -49 -41 -49 l-29 0 0
83 0 84 -40 0 c-22 0 -41 -1 -42 -1z"/>
<path d="M1780 1737 c0 -7 27 -94 61 -194 l61 -183 38 0 c21 0 41 4 44 9 3 4
-23 91 -57 192 l-62 183 -42 3 c-29 1 -43 -2 -43 -10z"/>
<path d="M2009 1722 c-5 -13 -9 -27 -9 -31 0 -4 -11 -36 -26 -72 l-25 -64 22
-68 c12 -37 26 -64 30 -60 4 5 28 73 54 153 26 80 50 150 52 156 2 6 -14 10
-43 10 -39 0 -47 -3 -55 -24z"/>
<path d="M2140 1553 l0 -193 43 0 43 0 -1 192 0 193 -42 0 -43 0 0 -192z"/>
<path d="M2364 1735 c-168 -70 -128 -375 48 -375 34 0 93 30 115 59 17 22 17
22 -12 55 l-25 29 -26 -27 c-33 -32 -65 -33 -99 -3 -34 29 -44 91 -21 134 27
54 95 61 128 14 14 -20 15 -20 43 9 27 28 27 30 11 54 -32 50 -109 74 -162 51z"/>
<path d="M2569 1741 c0 -4 -1 -90 -2 -194 l-2 -187 113 0 112 0 0 48 0 49 -67
-1 c-66 -1 -68 0 -68 24 0 24 2 25 65 25 l65 0 3 48 3 47 -71 0 c-68 0 -71 1
-68 23 3 20 9 22 71 25 l67 3 0 47 0 48 -110 0 c-60 0 -110 -2 -111 -5z"/>
<path d="M2882 1730 c-75 -46 -68 -111 20 -200 55 -56 60 -63 43 -73 -15 -8
-23 -5 -42 17 l-24 28 -34 -27 c-40 -30 -37 -44 16 -89 46 -39 101 -36 145 8
57 57 44 122 -37 197 -27 25 -49 48 -49 52 0 15 30 6 43 -13 13 -19 14 -19 46
14 l32 33 -32 31 c-18 18 -38 32 -43 33 -6 0 -20 2 -31 4 -12 3 -35 -5 -53
-15z"/>
<path d="M1147 1733 c-3 -5 -8 -22 -11 -39 -6 -26 -2 -37 17 -56 l25 -25 31
27 c17 15 31 32 31 38 0 6 -14 22 -31 36 -30 26 -54 33 -62 19z"/>
<path d="M1106 1594 l-16 -48 36 -37 c35 -36 38 -59 8 -59 -8 0 -23 14 -33 31
-21 35 -23 33 -41 -35 -12 -45 -12 -50 6 -63 67 -49 165 -12 177 67 7 45 -12
84 -66 138 l-54 54 -17 -48z"/>
</g>
</svg>
